<svg width="1000" height="200" viewBox="0 0 1000 200" xmlns="http://www.w3.org/2000/svg" role="img" aria-label="oncekit — exactly-once processing for webhooks, events, and jobs">
  <defs>
    <pattern id="b2"  width="16" height="16" patternUnits="userSpaceOnUse" shape-rendering="crispEdges"><rect x="0" y="0" width="4" height="4" fill="#17130B"/><rect x="8" y="8" width="4" height="4" fill="#17130B"/></pattern>
    <pattern id="b6"  width="16" height="16" patternUnits="userSpaceOnUse" shape-rendering="crispEdges"><rect x="0" y="0" width="4" height="4" fill="#17130B"/><rect x="8" y="0" width="4" height="4" fill="#17130B"/><rect x="0" y="8" width="4" height="4" fill="#17130B"/><rect x="8" y="8" width="4" height="4" fill="#17130B"/><rect x="4" y="4" width="4" height="4" fill="#17130B"/><rect x="12" y="12" width="4" height="4" fill="#17130B"/></pattern>
    <pattern id="b10" width="16" height="16" patternUnits="userSpaceOnUse" shape-rendering="crispEdges"><rect x="0" y="0" width="4" height="4" fill="#17130B"/><rect x="8" y="0" width="4" height="4" fill="#17130B"/><rect x="0" y="8" width="4" height="4" fill="#17130B"/><rect x="8" y="8" width="4" height="4" fill="#17130B"/><rect x="4" y="4" width="4" height="4" fill="#17130B"/><rect x="12" y="12" width="4" height="4" fill="#17130B"/><rect x="12" y="4" width="4" height="4" fill="#17130B"/><rect x="4" y="12" width="4" height="4" fill="#17130B"/><rect x="4" y="0" width="4" height="4" fill="#17130B"/><rect x="12" y="8" width="4" height="4" fill="#17130B"/></pattern>
    <pattern id="b14" width="16" height="16" patternUnits="userSpaceOnUse" shape-rendering="crispEdges"><rect x="0" y="0" width="4" height="4" fill="#17130B"/><rect x="8" y="0" width="4" height="4" fill="#17130B"/><rect x="0" y="8" width="4" height="4" fill="#17130B"/><rect x="8" y="8" width="4" height="4" fill="#17130B"/><rect x="4" y="4" width="4" height="4" fill="#17130B"/><rect x="12" y="12" width="4" height="4" fill="#17130B"/><rect x="12" y="4" width="4" height="4" fill="#17130B"/><rect x="4" y="12" width="4" height="4" fill="#17130B"/><rect x="4" y="0" width="4" height="4" fill="#17130B"/><rect x="12" y="8" width="4" height="4" fill="#17130B"/><rect x="12" y="0" width="4" height="4" fill="#17130B"/><rect x="4" y="8" width="4" height="4" fill="#17130B"/><rect x="0" y="4" width="4" height="4" fill="#17130B"/><rect x="8" y="12" width="4" height="4" fill="#17130B"/></pattern>
    <style>
      .word { font-family:'Helvetica Neue','Segoe UI',Arial,sans-serif; font-weight:800; fill:#17130B; letter-spacing:-2px; }
      .mono { font-family: ui-monospace,'SF Mono','Cascadia Mono','Consolas',monospace; }
    </style>
  </defs>

  <rect width="1000" height="200" fill="#E7E0CF"/>

  <!-- dithered fore-edge -->
  <rect x="720" y="0" width="35" height="200" fill="url(#b2)"/>
  <rect x="755" y="0" width="35" height="200" fill="url(#b6)"/>
  <rect x="790" y="0" width="35" height="200" fill="url(#b10)"/>
  <rect x="825" y="0" width="35" height="200" fill="url(#b14)"/>
  <rect x="860" y="0" width="140" height="200" fill="#17130B"/>
  <text class="mono" x="984" y="188" text-anchor="end" font-size="10" letter-spacing="2" fill="#E7E0CF">EXACTLY&#160;ONCE</text>

  <rect x="0.5" y="0.5" width="999" height="199" fill="none" stroke="#17130B" stroke-width="1" opacity="0.3"/>

  <rect x="60" y="58" width="9" height="9" fill="#C24326"/>
  <text class="mono" x="80" y="67" font-size="12" letter-spacing="3" fill="#726A57">TYPESCRIPT &#183; MIT &#183; ZERO-DEP CORE</text>

  <text class="word" x="58" y="128" font-size="60">oncekit</text>

  <text class="mono" x="60" y="162" font-size="14" fill="#4A4436">exactly-once processing for webhooks, events, and jobs</text>
</svg>
